<mxfile host="app.diagrams.net" modified="2024-06-27T07:39:43.416Z" agent="Mozilla/5.0 (Macintosh; Intel Mac OS X 10_15_7) AppleWebKit/605.1.15 (KHTML, like Gecko) Version/17.5 Safari/605.1.15" etag="C1bY0NoPRYBqt-_jNGiZ" version="24.3.1" type="github">
  <diagram name="第 1 页" id="xqKIsfR9Eklun5eR2lfy">
    <mxGraphModel dx="1094" dy="623" grid="1" gridSize="5" guides="1" tooltips="1" connect="1" arrows="1" fold="1" page="0" pageScale="1" pageWidth="827" pageHeight="1169" math="0" shadow="0">
      <root>
        <mxCell id="0" />
        <mxCell id="1" parent="0" />
        <mxCell id="vdp-HUDgLQkNiqysfl9j-33" value="" style="group" vertex="1" connectable="0" parent="1">
          <mxGeometry x="130" y="120" width="60" height="90" as="geometry" />
        </mxCell>
        <mxCell id="vdp-HUDgLQkNiqysfl9j-34" value="" style="rounded=0;whiteSpace=wrap;html=1;" vertex="1" parent="vdp-HUDgLQkNiqysfl9j-33">
          <mxGeometry width="60" height="80" as="geometry" />
        </mxCell>
        <mxCell id="vdp-HUDgLQkNiqysfl9j-35" value="D" style="text;html=1;align=center;verticalAlign=middle;whiteSpace=wrap;rounded=0;connectable=0;" vertex="1" parent="vdp-HUDgLQkNiqysfl9j-33">
          <mxGeometry y="10" width="20" height="20" as="geometry" />
        </mxCell>
        <mxCell id="vdp-HUDgLQkNiqysfl9j-36" value="Q" style="text;html=1;align=center;verticalAlign=middle;whiteSpace=wrap;rounded=0;connectable=0;" vertex="1" parent="vdp-HUDgLQkNiqysfl9j-33">
          <mxGeometry x="40" y="10" width="20" height="20" as="geometry" />
        </mxCell>
        <mxCell id="vdp-HUDgLQkNiqysfl9j-37" value="" style="triangle;whiteSpace=wrap;html=1;" vertex="1" parent="vdp-HUDgLQkNiqysfl9j-33">
          <mxGeometry y="40" width="10" height="10" as="geometry" />
        </mxCell>
        <mxCell id="vdp-HUDgLQkNiqysfl9j-38" value="" style="verticalLabelPosition=bottom;shadow=0;dashed=0;align=center;html=1;verticalAlign=top;shape=mxgraph.electrical.logic_gates.inverting_contact;" vertex="1" parent="vdp-HUDgLQkNiqysfl9j-33">
          <mxGeometry x="25" y="80" width="10" height="10" as="geometry" />
        </mxCell>
        <mxCell id="vdp-HUDgLQkNiqysfl9j-39" value="RDN" style="text;html=1;align=center;verticalAlign=middle;whiteSpace=wrap;rounded=0;connectable=0;" vertex="1" parent="vdp-HUDgLQkNiqysfl9j-33">
          <mxGeometry x="15" y="60" width="30" height="20" as="geometry" />
        </mxCell>
        <mxCell id="vdp-HUDgLQkNiqysfl9j-40" value="CK" style="text;html=1;align=center;verticalAlign=middle;whiteSpace=wrap;rounded=0;connectable=0;" vertex="1" parent="vdp-HUDgLQkNiqysfl9j-33">
          <mxGeometry x="10" y="35" width="20" height="20" as="geometry" />
        </mxCell>
        <mxCell id="vdp-HUDgLQkNiqysfl9j-41" value="" style="group" vertex="1" connectable="0" parent="1">
          <mxGeometry x="265" y="120" width="60" height="90" as="geometry" />
        </mxCell>
        <mxCell id="vdp-HUDgLQkNiqysfl9j-42" value="" style="rounded=0;whiteSpace=wrap;html=1;" vertex="1" parent="vdp-HUDgLQkNiqysfl9j-41">
          <mxGeometry width="60" height="80" as="geometry" />
        </mxCell>
        <mxCell id="vdp-HUDgLQkNiqysfl9j-43" value="D" style="text;html=1;align=center;verticalAlign=middle;whiteSpace=wrap;rounded=0;connectable=0;" vertex="1" parent="vdp-HUDgLQkNiqysfl9j-41">
          <mxGeometry y="10" width="20" height="20" as="geometry" />
        </mxCell>
        <mxCell id="vdp-HUDgLQkNiqysfl9j-44" value="Q" style="text;html=1;align=center;verticalAlign=middle;whiteSpace=wrap;rounded=0;connectable=0;" vertex="1" parent="vdp-HUDgLQkNiqysfl9j-41">
          <mxGeometry x="40" y="10" width="20" height="20" as="geometry" />
        </mxCell>
        <mxCell id="vdp-HUDgLQkNiqysfl9j-45" value="" style="triangle;whiteSpace=wrap;html=1;" vertex="1" parent="vdp-HUDgLQkNiqysfl9j-41">
          <mxGeometry y="40" width="10" height="10" as="geometry" />
        </mxCell>
        <mxCell id="vdp-HUDgLQkNiqysfl9j-46" value="" style="verticalLabelPosition=bottom;shadow=0;dashed=0;align=center;html=1;verticalAlign=top;shape=mxgraph.electrical.logic_gates.inverting_contact;" vertex="1" parent="vdp-HUDgLQkNiqysfl9j-41">
          <mxGeometry x="25" y="80" width="10" height="10" as="geometry" />
        </mxCell>
        <mxCell id="vdp-HUDgLQkNiqysfl9j-47" value="RDN" style="text;html=1;align=center;verticalAlign=middle;whiteSpace=wrap;rounded=0;connectable=0;" vertex="1" parent="vdp-HUDgLQkNiqysfl9j-41">
          <mxGeometry x="15" y="60" width="30" height="20" as="geometry" />
        </mxCell>
        <mxCell id="vdp-HUDgLQkNiqysfl9j-48" value="CK" style="text;html=1;align=center;verticalAlign=middle;whiteSpace=wrap;rounded=0;connectable=0;" vertex="1" parent="vdp-HUDgLQkNiqysfl9j-41">
          <mxGeometry x="10" y="35" width="20" height="20" as="geometry" />
        </mxCell>
        <mxCell id="vdp-HUDgLQkNiqysfl9j-50" value="" style="endArrow=none;html=1;rounded=0;" edge="1" parent="1">
          <mxGeometry width="50" height="50" relative="1" as="geometry">
            <mxPoint x="190" y="140" as="sourcePoint" />
            <mxPoint x="265" y="140" as="targetPoint" />
          </mxGeometry>
        </mxCell>
        <mxCell id="vdp-HUDgLQkNiqysfl9j-52" value="" style="ellipse;whiteSpace=wrap;html=1;aspect=fixed;" vertex="1" parent="1">
          <mxGeometry x="260" y="162.5" width="5" height="5" as="geometry" />
        </mxCell>
        <mxCell id="vdp-HUDgLQkNiqysfl9j-53" value="" style="endArrow=none;html=1;rounded=0;" edge="1" parent="1">
          <mxGeometry width="50" height="50" relative="1" as="geometry">
            <mxPoint x="240" y="165" as="sourcePoint" />
            <mxPoint x="260" y="165" as="targetPoint" />
          </mxGeometry>
        </mxCell>
        <mxCell id="vdp-HUDgLQkNiqysfl9j-54" value="" style="endArrow=none;html=1;rounded=0;" edge="1" parent="1">
          <mxGeometry width="50" height="50" relative="1" as="geometry">
            <mxPoint x="240" y="220" as="sourcePoint" />
            <mxPoint x="240" y="165" as="targetPoint" />
          </mxGeometry>
        </mxCell>
        <mxCell id="vdp-HUDgLQkNiqysfl9j-55" value="" style="endArrow=none;html=1;rounded=0;" edge="1" parent="1">
          <mxGeometry width="50" height="50" relative="1" as="geometry">
            <mxPoint x="60" y="220" as="sourcePoint" />
            <mxPoint x="240" y="220" as="targetPoint" />
          </mxGeometry>
        </mxCell>
        <mxCell id="vdp-HUDgLQkNiqysfl9j-56" value="" style="endArrow=none;html=1;rounded=0;" edge="1" parent="1">
          <mxGeometry width="50" height="50" relative="1" as="geometry">
            <mxPoint x="100" y="165" as="sourcePoint" />
            <mxPoint x="130" y="165" as="targetPoint" />
          </mxGeometry>
        </mxCell>
        <mxCell id="vdp-HUDgLQkNiqysfl9j-57" value="" style="endArrow=none;html=1;rounded=0;" edge="1" parent="1">
          <mxGeometry width="50" height="50" relative="1" as="geometry">
            <mxPoint x="100" y="220" as="sourcePoint" />
            <mxPoint x="100" y="165" as="targetPoint" />
          </mxGeometry>
        </mxCell>
        <mxCell id="vdp-HUDgLQkNiqysfl9j-58" value="" style="endArrow=none;html=1;rounded=0;" edge="1" parent="1">
          <mxGeometry width="50" height="50" relative="1" as="geometry">
            <mxPoint x="325" y="140" as="sourcePoint" />
            <mxPoint x="380" y="140" as="targetPoint" />
          </mxGeometry>
        </mxCell>
        <mxCell id="vdp-HUDgLQkNiqysfl9j-60" value="" style="verticalLabelPosition=bottom;shadow=0;dashed=0;align=center;html=1;verticalAlign=top;shape=mxgraph.electrical.logic_gates.logic_gate;operation=and;" vertex="1" parent="1">
          <mxGeometry x="380" y="130" width="80" height="41" as="geometry" />
        </mxCell>
        <mxCell id="vdp-HUDgLQkNiqysfl9j-61" value="" style="endArrow=none;html=1;rounded=0;" edge="1" parent="1">
          <mxGeometry width="50" height="50" relative="1" as="geometry">
            <mxPoint x="240" y="220" as="sourcePoint" />
            <mxPoint x="380" y="220" as="targetPoint" />
          </mxGeometry>
        </mxCell>
        <mxCell id="vdp-HUDgLQkNiqysfl9j-62" value="" style="endArrow=none;html=1;rounded=0;entryX=0;entryY=0.75;entryDx=0;entryDy=0;entryPerimeter=0;" edge="1" parent="1" target="vdp-HUDgLQkNiqysfl9j-60">
          <mxGeometry width="50" height="50" relative="1" as="geometry">
            <mxPoint x="380" y="220" as="sourcePoint" />
            <mxPoint x="360" y="125" as="targetPoint" />
          </mxGeometry>
        </mxCell>
        <mxCell id="vdp-HUDgLQkNiqysfl9j-64" value="" style="verticalLabelPosition=bottom;shadow=0;dashed=0;align=center;html=1;verticalAlign=top;shape=mxgraph.electrical.logic_gates.logic_gate;operation=and;" vertex="1" parent="1">
          <mxGeometry x="15" y="120" width="80" height="41" as="geometry" />
        </mxCell>
        <mxCell id="vdp-HUDgLQkNiqysfl9j-65" value="" style="endArrow=none;html=1;rounded=0;exitX=1;exitY=0.5;exitDx=0;exitDy=0;exitPerimeter=0;" edge="1" parent="1" source="vdp-HUDgLQkNiqysfl9j-64">
          <mxGeometry width="50" height="50" relative="1" as="geometry">
            <mxPoint x="105" y="140" as="sourcePoint" />
            <mxPoint x="130" y="140" as="targetPoint" />
          </mxGeometry>
        </mxCell>
        <mxCell id="vdp-HUDgLQkNiqysfl9j-66" value="" style="endArrow=none;html=1;rounded=0;" edge="1" parent="1">
          <mxGeometry width="50" height="50" relative="1" as="geometry">
            <mxPoint x="-60" y="130" as="sourcePoint" />
            <mxPoint x="15" y="130" as="targetPoint" />
          </mxGeometry>
        </mxCell>
        <mxCell id="vdp-HUDgLQkNiqysfl9j-67" value="" style="verticalLabelPosition=bottom;shadow=0;dashed=0;align=center;html=1;verticalAlign=top;shape=mxgraph.electrical.logic_gates.inverter_2;rotation=90;" vertex="1" parent="1">
          <mxGeometry x="-61.25" y="233.75" width="42.5" height="40" as="geometry" />
        </mxCell>
        <mxCell id="vdp-HUDgLQkNiqysfl9j-68" value="" style="endArrow=none;html=1;rounded=0;" edge="1" parent="1">
          <mxGeometry width="50" height="50" relative="1" as="geometry">
            <mxPoint x="-40" y="233.75" as="sourcePoint" />
            <mxPoint x="-40" y="130" as="targetPoint" />
          </mxGeometry>
        </mxCell>
        <mxCell id="vdp-HUDgLQkNiqysfl9j-69" value="" style="group" vertex="1" connectable="0" parent="1">
          <mxGeometry x="130" y="320" width="60" height="90" as="geometry" />
        </mxCell>
        <mxCell id="vdp-HUDgLQkNiqysfl9j-70" value="" style="rounded=0;whiteSpace=wrap;html=1;" vertex="1" parent="vdp-HUDgLQkNiqysfl9j-69">
          <mxGeometry width="60" height="80" as="geometry" />
        </mxCell>
        <mxCell id="vdp-HUDgLQkNiqysfl9j-71" value="D" style="text;html=1;align=center;verticalAlign=middle;whiteSpace=wrap;rounded=0;connectable=0;" vertex="1" parent="vdp-HUDgLQkNiqysfl9j-69">
          <mxGeometry y="10" width="20" height="20" as="geometry" />
        </mxCell>
        <mxCell id="vdp-HUDgLQkNiqysfl9j-72" value="Q" style="text;html=1;align=center;verticalAlign=middle;whiteSpace=wrap;rounded=0;connectable=0;" vertex="1" parent="vdp-HUDgLQkNiqysfl9j-69">
          <mxGeometry x="40" y="10" width="20" height="20" as="geometry" />
        </mxCell>
        <mxCell id="vdp-HUDgLQkNiqysfl9j-73" value="" style="triangle;whiteSpace=wrap;html=1;" vertex="1" parent="vdp-HUDgLQkNiqysfl9j-69">
          <mxGeometry y="40" width="10" height="10" as="geometry" />
        </mxCell>
        <mxCell id="vdp-HUDgLQkNiqysfl9j-74" value="" style="verticalLabelPosition=bottom;shadow=0;dashed=0;align=center;html=1;verticalAlign=top;shape=mxgraph.electrical.logic_gates.inverting_contact;" vertex="1" parent="vdp-HUDgLQkNiqysfl9j-69">
          <mxGeometry x="25" y="80" width="10" height="10" as="geometry" />
        </mxCell>
        <mxCell id="vdp-HUDgLQkNiqysfl9j-75" value="RDN" style="text;html=1;align=center;verticalAlign=middle;whiteSpace=wrap;rounded=0;connectable=0;" vertex="1" parent="vdp-HUDgLQkNiqysfl9j-69">
          <mxGeometry x="15" y="60" width="30" height="20" as="geometry" />
        </mxCell>
        <mxCell id="vdp-HUDgLQkNiqysfl9j-76" value="CK" style="text;html=1;align=center;verticalAlign=middle;whiteSpace=wrap;rounded=0;connectable=0;" vertex="1" parent="vdp-HUDgLQkNiqysfl9j-69">
          <mxGeometry x="10" y="35" width="20" height="20" as="geometry" />
        </mxCell>
        <mxCell id="vdp-HUDgLQkNiqysfl9j-77" value="" style="group" vertex="1" connectable="0" parent="1">
          <mxGeometry x="265" y="320" width="60" height="90" as="geometry" />
        </mxCell>
        <mxCell id="vdp-HUDgLQkNiqysfl9j-78" value="" style="rounded=0;whiteSpace=wrap;html=1;" vertex="1" parent="vdp-HUDgLQkNiqysfl9j-77">
          <mxGeometry width="60" height="80" as="geometry" />
        </mxCell>
        <mxCell id="vdp-HUDgLQkNiqysfl9j-79" value="D" style="text;html=1;align=center;verticalAlign=middle;whiteSpace=wrap;rounded=0;connectable=0;" vertex="1" parent="vdp-HUDgLQkNiqysfl9j-77">
          <mxGeometry y="10" width="20" height="20" as="geometry" />
        </mxCell>
        <mxCell id="vdp-HUDgLQkNiqysfl9j-80" value="Q" style="text;html=1;align=center;verticalAlign=middle;whiteSpace=wrap;rounded=0;connectable=0;" vertex="1" parent="vdp-HUDgLQkNiqysfl9j-77">
          <mxGeometry x="40" y="10" width="20" height="20" as="geometry" />
        </mxCell>
        <mxCell id="vdp-HUDgLQkNiqysfl9j-81" value="" style="triangle;whiteSpace=wrap;html=1;" vertex="1" parent="vdp-HUDgLQkNiqysfl9j-77">
          <mxGeometry y="40" width="10" height="10" as="geometry" />
        </mxCell>
        <mxCell id="vdp-HUDgLQkNiqysfl9j-82" value="" style="verticalLabelPosition=bottom;shadow=0;dashed=0;align=center;html=1;verticalAlign=top;shape=mxgraph.electrical.logic_gates.inverting_contact;" vertex="1" parent="vdp-HUDgLQkNiqysfl9j-77">
          <mxGeometry x="25" y="80" width="10" height="10" as="geometry" />
        </mxCell>
        <mxCell id="vdp-HUDgLQkNiqysfl9j-83" value="RDN" style="text;html=1;align=center;verticalAlign=middle;whiteSpace=wrap;rounded=0;connectable=0;" vertex="1" parent="vdp-HUDgLQkNiqysfl9j-77">
          <mxGeometry x="15" y="60" width="30" height="20" as="geometry" />
        </mxCell>
        <mxCell id="vdp-HUDgLQkNiqysfl9j-84" value="CK" style="text;html=1;align=center;verticalAlign=middle;whiteSpace=wrap;rounded=0;connectable=0;" vertex="1" parent="vdp-HUDgLQkNiqysfl9j-77">
          <mxGeometry x="10" y="35" width="20" height="20" as="geometry" />
        </mxCell>
        <mxCell id="vdp-HUDgLQkNiqysfl9j-85" value="" style="endArrow=none;html=1;rounded=0;" edge="1" parent="1">
          <mxGeometry width="50" height="50" relative="1" as="geometry">
            <mxPoint x="190" y="340" as="sourcePoint" />
            <mxPoint x="265" y="340" as="targetPoint" />
          </mxGeometry>
        </mxCell>
        <mxCell id="vdp-HUDgLQkNiqysfl9j-86" value="" style="ellipse;whiteSpace=wrap;html=1;aspect=fixed;" vertex="1" parent="1">
          <mxGeometry x="260" y="362.5" width="5" height="5" as="geometry" />
        </mxCell>
        <mxCell id="vdp-HUDgLQkNiqysfl9j-87" value="" style="endArrow=none;html=1;rounded=0;" edge="1" parent="1">
          <mxGeometry width="50" height="50" relative="1" as="geometry">
            <mxPoint x="240" y="365" as="sourcePoint" />
            <mxPoint x="260" y="365" as="targetPoint" />
          </mxGeometry>
        </mxCell>
        <mxCell id="vdp-HUDgLQkNiqysfl9j-88" value="" style="endArrow=none;html=1;rounded=0;" edge="1" parent="1">
          <mxGeometry width="50" height="50" relative="1" as="geometry">
            <mxPoint x="240" y="420" as="sourcePoint" />
            <mxPoint x="240" y="365" as="targetPoint" />
          </mxGeometry>
        </mxCell>
        <mxCell id="vdp-HUDgLQkNiqysfl9j-89" value="" style="endArrow=none;html=1;rounded=0;" edge="1" parent="1">
          <mxGeometry width="50" height="50" relative="1" as="geometry">
            <mxPoint x="60" y="420" as="sourcePoint" />
            <mxPoint x="240" y="420" as="targetPoint" />
          </mxGeometry>
        </mxCell>
        <mxCell id="vdp-HUDgLQkNiqysfl9j-90" value="" style="endArrow=none;html=1;rounded=0;" edge="1" parent="1">
          <mxGeometry width="50" height="50" relative="1" as="geometry">
            <mxPoint x="100" y="365" as="sourcePoint" />
            <mxPoint x="130" y="365" as="targetPoint" />
          </mxGeometry>
        </mxCell>
        <mxCell id="vdp-HUDgLQkNiqysfl9j-91" value="" style="endArrow=none;html=1;rounded=0;" edge="1" parent="1">
          <mxGeometry width="50" height="50" relative="1" as="geometry">
            <mxPoint x="100" y="420" as="sourcePoint" />
            <mxPoint x="100" y="365" as="targetPoint" />
          </mxGeometry>
        </mxCell>
        <mxCell id="vdp-HUDgLQkNiqysfl9j-92" value="" style="endArrow=none;html=1;rounded=0;" edge="1" parent="1">
          <mxGeometry width="50" height="50" relative="1" as="geometry">
            <mxPoint x="325" y="340" as="sourcePoint" />
            <mxPoint x="380" y="340" as="targetPoint" />
          </mxGeometry>
        </mxCell>
        <mxCell id="vdp-HUDgLQkNiqysfl9j-93" value="" style="verticalLabelPosition=bottom;shadow=0;dashed=0;align=center;html=1;verticalAlign=top;shape=mxgraph.electrical.logic_gates.logic_gate;operation=and;" vertex="1" parent="1">
          <mxGeometry x="380" y="330" width="80" height="41" as="geometry" />
        </mxCell>
        <mxCell id="vdp-HUDgLQkNiqysfl9j-94" value="" style="endArrow=none;html=1;rounded=0;" edge="1" parent="1">
          <mxGeometry width="50" height="50" relative="1" as="geometry">
            <mxPoint x="240" y="420" as="sourcePoint" />
            <mxPoint x="380" y="420" as="targetPoint" />
          </mxGeometry>
        </mxCell>
        <mxCell id="vdp-HUDgLQkNiqysfl9j-95" value="" style="endArrow=none;html=1;rounded=0;entryX=0;entryY=0.75;entryDx=0;entryDy=0;entryPerimeter=0;" edge="1" parent="1" target="vdp-HUDgLQkNiqysfl9j-93">
          <mxGeometry width="50" height="50" relative="1" as="geometry">
            <mxPoint x="380" y="420" as="sourcePoint" />
            <mxPoint x="360" y="325" as="targetPoint" />
          </mxGeometry>
        </mxCell>
        <mxCell id="vdp-HUDgLQkNiqysfl9j-96" value="" style="verticalLabelPosition=bottom;shadow=0;dashed=0;align=center;html=1;verticalAlign=top;shape=mxgraph.electrical.logic_gates.logic_gate;operation=and;" vertex="1" parent="1">
          <mxGeometry x="15" y="320" width="80" height="41" as="geometry" />
        </mxCell>
        <mxCell id="vdp-HUDgLQkNiqysfl9j-97" value="" style="endArrow=none;html=1;rounded=0;exitX=1;exitY=0.5;exitDx=0;exitDy=0;exitPerimeter=0;" edge="1" parent="1" source="vdp-HUDgLQkNiqysfl9j-96">
          <mxGeometry width="50" height="50" relative="1" as="geometry">
            <mxPoint x="105" y="340" as="sourcePoint" />
            <mxPoint x="130" y="340" as="targetPoint" />
          </mxGeometry>
        </mxCell>
        <mxCell id="vdp-HUDgLQkNiqysfl9j-98" value="" style="endArrow=none;html=1;rounded=0;entryX=0;entryY=0.75;entryDx=0;entryDy=0;entryPerimeter=0;" edge="1" parent="1" target="vdp-HUDgLQkNiqysfl9j-64">
          <mxGeometry width="50" height="50" relative="1" as="geometry">
            <mxPoint x="15" y="240" as="sourcePoint" />
            <mxPoint x="205" y="275" as="targetPoint" />
          </mxGeometry>
        </mxCell>
        <mxCell id="vdp-HUDgLQkNiqysfl9j-99" value="" style="endArrow=none;html=1;rounded=0;" edge="1" parent="1">
          <mxGeometry width="50" height="50" relative="1" as="geometry">
            <mxPoint x="15" y="240" as="sourcePoint" />
            <mxPoint x="360" y="300" as="targetPoint" />
          </mxGeometry>
        </mxCell>
        <mxCell id="vdp-HUDgLQkNiqysfl9j-100" value="" style="endArrow=none;html=1;rounded=0;" edge="1" parent="1">
          <mxGeometry width="50" height="50" relative="1" as="geometry">
            <mxPoint x="360" y="380" as="sourcePoint" />
            <mxPoint x="360" y="300" as="targetPoint" />
          </mxGeometry>
        </mxCell>
        <mxCell id="vdp-HUDgLQkNiqysfl9j-101" value="" style="endArrow=none;html=1;rounded=0;" edge="1" parent="1">
          <mxGeometry width="50" height="50" relative="1" as="geometry">
            <mxPoint x="325" y="380" as="sourcePoint" />
            <mxPoint x="360" y="380" as="targetPoint" />
          </mxGeometry>
        </mxCell>
        <mxCell id="vdp-HUDgLQkNiqysfl9j-102" value="" style="endArrow=none;html=1;rounded=0;" edge="1" parent="1">
          <mxGeometry width="50" height="50" relative="1" as="geometry">
            <mxPoint x="15" y="330" as="sourcePoint" />
            <mxPoint x="15" y="280" as="targetPoint" />
          </mxGeometry>
        </mxCell>
        <mxCell id="vdp-HUDgLQkNiqysfl9j-103" value="" style="endArrow=none;html=1;rounded=0;" edge="1" parent="1">
          <mxGeometry width="50" height="50" relative="1" as="geometry">
            <mxPoint x="15" y="280" as="sourcePoint" />
            <mxPoint x="360" y="240" as="targetPoint" />
          </mxGeometry>
        </mxCell>
        <mxCell id="vdp-HUDgLQkNiqysfl9j-104" value="" style="endArrow=none;html=1;rounded=0;" edge="1" parent="1">
          <mxGeometry width="50" height="50" relative="1" as="geometry">
            <mxPoint x="360" y="240" as="sourcePoint" />
            <mxPoint x="360" y="180" as="targetPoint" />
          </mxGeometry>
        </mxCell>
        <mxCell id="vdp-HUDgLQkNiqysfl9j-105" value="" style="endArrow=none;html=1;rounded=0;exitX=1;exitY=0.75;exitDx=0;exitDy=0;" edge="1" parent="1" source="vdp-HUDgLQkNiqysfl9j-42">
          <mxGeometry width="50" height="50" relative="1" as="geometry">
            <mxPoint x="240" y="225" as="sourcePoint" />
            <mxPoint x="360" y="180" as="targetPoint" />
          </mxGeometry>
        </mxCell>
        <mxCell id="vdp-HUDgLQkNiqysfl9j-110" value="" style="endArrow=none;html=1;rounded=0;entryX=1;entryY=0.5;entryDx=0;entryDy=0;entryPerimeter=0;" edge="1" parent="1" target="vdp-HUDgLQkNiqysfl9j-67">
          <mxGeometry width="50" height="50" relative="1" as="geometry">
            <mxPoint x="-40" y="350" as="sourcePoint" />
            <mxPoint x="55" y="285" as="targetPoint" />
          </mxGeometry>
        </mxCell>
        <mxCell id="vdp-HUDgLQkNiqysfl9j-111" value="" style="endArrow=none;html=1;rounded=0;entryX=0;entryY=0.75;entryDx=0;entryDy=0;entryPerimeter=0;" edge="1" parent="1" target="vdp-HUDgLQkNiqysfl9j-96">
          <mxGeometry width="50" height="50" relative="1" as="geometry">
            <mxPoint x="-40" y="350" as="sourcePoint" />
            <mxPoint x="55" y="285" as="targetPoint" />
          </mxGeometry>
        </mxCell>
        <mxCell id="vdp-HUDgLQkNiqysfl9j-112" value="" style="verticalLabelPosition=bottom;shadow=0;dashed=0;align=center;html=1;verticalAlign=top;shape=mxgraph.electrical.logic_gates.logic_gate;operation=or;" vertex="1" parent="1">
          <mxGeometry x="500" y="223.75" width="100" height="61.25" as="geometry" />
        </mxCell>
        <mxCell id="vdp-HUDgLQkNiqysfl9j-113" value="" style="endArrow=none;html=1;rounded=0;exitX=1;exitY=0.5;exitDx=0;exitDy=0;exitPerimeter=0;" edge="1" parent="1" source="vdp-HUDgLQkNiqysfl9j-60">
          <mxGeometry width="50" height="50" relative="1" as="geometry">
            <mxPoint x="470" y="155" as="sourcePoint" />
            <mxPoint x="480" y="150" as="targetPoint" />
          </mxGeometry>
        </mxCell>
        <mxCell id="vdp-HUDgLQkNiqysfl9j-115" value="" style="endArrow=none;html=1;rounded=0;" edge="1" parent="1">
          <mxGeometry width="50" height="50" relative="1" as="geometry">
            <mxPoint x="480" y="240" as="sourcePoint" />
            <mxPoint x="480" y="150" as="targetPoint" />
          </mxGeometry>
        </mxCell>
        <mxCell id="vdp-HUDgLQkNiqysfl9j-119" value="" style="endArrow=none;html=1;rounded=0;entryX=0;entryY=0.25;entryDx=0;entryDy=0;entryPerimeter=0;" edge="1" parent="1" target="vdp-HUDgLQkNiqysfl9j-112">
          <mxGeometry width="50" height="50" relative="1" as="geometry">
            <mxPoint x="480" y="239" as="sourcePoint" />
            <mxPoint x="490" y="140" as="targetPoint" />
          </mxGeometry>
        </mxCell>
        <mxCell id="vdp-HUDgLQkNiqysfl9j-121" value="" style="endArrow=none;html=1;rounded=0;exitX=1;exitY=0.5;exitDx=0;exitDy=0;exitPerimeter=0;" edge="1" parent="1" source="vdp-HUDgLQkNiqysfl9j-93">
          <mxGeometry width="50" height="50" relative="1" as="geometry">
            <mxPoint x="455" y="285" as="sourcePoint" />
            <mxPoint x="480" y="350" as="targetPoint" />
          </mxGeometry>
        </mxCell>
        <mxCell id="vdp-HUDgLQkNiqysfl9j-122" value="" style="endArrow=none;html=1;rounded=0;" edge="1" parent="1">
          <mxGeometry width="50" height="50" relative="1" as="geometry">
            <mxPoint x="480" y="350" as="sourcePoint" />
            <mxPoint x="480" y="270" as="targetPoint" />
          </mxGeometry>
        </mxCell>
        <mxCell id="vdp-HUDgLQkNiqysfl9j-123" value="" style="endArrow=none;html=1;rounded=0;entryX=0;entryY=0.75;entryDx=0;entryDy=0;entryPerimeter=0;" edge="1" parent="1" target="vdp-HUDgLQkNiqysfl9j-112">
          <mxGeometry width="50" height="50" relative="1" as="geometry">
            <mxPoint x="480" y="270" as="sourcePoint" />
            <mxPoint x="505" y="235" as="targetPoint" />
          </mxGeometry>
        </mxCell>
      </root>
    </mxGraphModel>
  </diagram>
</mxfile>
